<svg xmlns="http://www.w3.org/2000/svg" viewBox="24 32 234 334" width="20" height="20" aria-hidden="true" focusable="false">
  <path fill="#a7aaad" d="M218.67,77.4C190.65,47.05,150,32.1,96.32,32.1H25.7V75.72h2.95v-.19H87c42,0,72.85,9.81,92.46,29.89C198.14,125,208,155.86,208,198.82c0,42-9.81,72.85-29,92.93C159.36,311.83,128.07,322.1,86,322.1H32.32v-.22H30.93v43.65H95.38c53.71,0,94.34-14.94,122.36-44.83,26.61-28.95,40.16-69.58,40.16-121.88C257.9,146.05,244.82,105.42,218.67,77.4Z"/>
  <rect fill="#a7aaad" x="24.25" y="32.1" width="45.8" height="146.29"/>
  <circle fill="#a7aaad" cx="47.15" cy="247.39" r="37"/>
</svg>